<svg
   xmlns="http://www.w3.org/2000/svg"
   width="1200"
   height="700"
   version="1.1"
   id="svg">
  <path
     d="m 1047,310 
        L 1055,290
        S 970,270 950,265
        S 840,310 820,330
        S 795,405 793,410
        S 798,485 790,480
        S 743,360 735,355
        S 650,300 620,300
        S 560,320 555,370
        L 555,370
        S 513,380 510,385
        S 490,400 487,407
        S 451,409 450,410
        S 432,420 430,420
        S 370,415 365,398
        S 380,360 353,345
        S 82,350 82,335
        S 100,310 75,325
        S 28,455 42,473
        S 100,453 135,458
        S 245,473 270,500
        S 325,590 335,600
        S 445,666 480,660
        S 560,575 578,585
        S 682,615 694,615
        S 805,577 810,575
        L 784,468
        L 797,464
        S 809,513 810,515
        S 843,519 825,517
        S 785,430 793,400
        S 800,350 830,320
        S 945,270 950,270
        S 1060,280 1058,292
        "
     id="wiggle"
     class="weirdPath"/>
</svg>
